<?xml version="1.0" encoding="utf-8"?>
<!-- Generator: Adobe Illustrator 24.0.1, SVG Export Plug-In . SVG Version: 6.00 Build 0)  -->
<svg version="1.1" id="Layer_1" xmlns="http://www.w3.org/2000/svg" xmlns:xlink="http://www.w3.org/1999/xlink" x="0px" y="0px"
	 viewBox="0 0 399.6 527.6" style="enable-background:new 0 0 399.6 527.6;" xml:space="preserve">
<style type="text/css">
	.st0{fill:none;stroke:#000000;stroke-width:40;stroke-linecap:round;stroke-miterlimit:10;}
</style>
<g>
	<path d="M172,116.6c32.4,0,62.9,12.6,85.8,35.5c22.9,22.9,35.5,53.4,35.5,85.8s-12.6,62.9-35.5,85.8s-53.4,35.5-85.8,35.5
		s-62.9-12.6-85.8-35.5c-22.9-22.9-35.5-53.4-35.5-85.8s12.6-62.9,35.5-85.8C109.2,129.2,139.6,116.6,172,116.6 M172,76.6
		c-89.1,0-161.3,72.2-161.3,161.3S82.9,399.2,172,399.2S333.3,327,333.3,237.9S261.1,76.6,172,76.6L172,76.6z"/>
</g>
<path class="st0" d="M57,395.3c8,5.9,16.4,11.3,25.5,16.2c102.1,49.5,224.5,3.7,268.2-94.4c40.9-91.8,2.2-205-91.4-254.3
	c-11.3-5.5-22.8-9.8-34.4-13"/>
<path d="M176.1,515.2L176.1,515.2c-11.3,0-20.5-9.2-20.5-20.5V452c0-11.3,9.2-20.5,20.5-20.5l0,0c11.3,0,20.5,9.2,20.5,20.5v42.7
	C196.6,506,187.4,515.2,176.1,515.2z"/>
<path d="M107.8,496.5L107.8,496.5c0-11.3,9.2-20.5,20.5-20.5h92.8c11.3,0,20.5,9.2,20.5,20.5l0,0c0,11.3-9.2,20.5-20.5,20.5h-92.8
	C117,517.1,107.8,507.9,107.8,496.5z"/>
</svg>
