<?xml version="1.0" encoding="utf-8"?>
<!-- Generator: Adobe Illustrator 24.0.1, SVG Export Plug-In . SVG Version: 6.00 Build 0)  -->
<svg version="1.1" id="Layer_1" xmlns="http://www.w3.org/2000/svg" xmlns:xlink="http://www.w3.org/1999/xlink" x="0px" y="0px"
	 viewBox="0 0 1806.3 527.6" style="enable-background:new 0 0 1806.3 527.6;" xml:space="preserve">
<style type="text/css">
	.st0{fill:none;stroke:#000000;stroke-width:40;stroke-linecap:round;stroke-miterlimit:10;}
</style>
<g>
	<path d="M309.2,153.5L309.2,153.5c-8,7.9-20.6,8.5-29.3,1.6c-28.4-22.6-60.4-33.9-96-33.9c-36.6,0-67.1,11.8-91.5,35.3
		C68,180,55.8,209.4,55.8,244.6c0,30.9,11.8,58.7,35.4,83.4c23.6,24.7,56.2,37.1,97.7,37.1c59.1,0,97.4-24.4,114.9-73.2
		c1.4-3.9-1.5-8-5.7-8h-54.7c-11.8,0-21.3-9.6-21.3-21.3v0c0-11.8,9.6-21.3,21.3-21.3l91.9,0c11.1,0,20.1,9.3,19.5,20.5
		c-0.6,12.1-1.9,22.3-3.8,30.7c-2.9,12.7-8.8,26.8-17.8,42.1c-9,15.3-21,29.1-35.9,41.3s-31,20.9-48.1,26.1
		c-17.1,5.2-37.5,7.8-61.2,7.8c-54,0-97-16.9-129.1-50.9c-32.1-33.9-48.2-72.7-48.2-116.3c0-45.9,16.4-85,49.3-117.3
		C92.8,93.1,132.6,77,179.4,77c27.8,0,53.2,4.2,76.2,12.6c17,6.2,34.3,16.5,51.9,30.8C317.8,128.8,318.6,144.2,309.2,153.5z"/>
	<path d="M438.6,86.8L438.6,86.8c11.6,0,21.1,9.4,21.1,21.1v234.5c0,8.1,6.6,14.7,14.7,14.7h108c11.6,0,21.1,9.4,21.1,21.1v0
		c0,11.6-9.4,21.1-21.1,21.1H438.6c-11.6,0-21.1-9.4-21.1-21.1V107.9C417.5,96.3,427,86.8,438.6,86.8z"/>
	<path d="M1057.1,102.2c0-8.5,6.9-15.4,15.4-15.4h34.2c32.5,0,59.1,7.1,79.7,21.2c20.6,14.1,30.9,32,30.9,53.5
		c0,24.5-13.2,45.2-39.5,62.2c-2.4,1.5-2,5.1,0.6,6.1c42.6,16,63.9,42.5,63.9,79.3c0,27-12.1,48.8-36.4,65.3
		c-24.3,16.5-56.8,24.8-97.5,24.8h-40.7c-5.8,0-10.6-4.7-10.6-10.6V102.2z M1099.3,127.7l0,85.8c0,1.9,1.6,3.5,3.6,3.4
		c21.8-0.7,38.6-5.2,50.5-13.4c12.5-8.7,18.8-20.6,18.8-35.8c0-13.2-5.6-23.8-16.9-31.8c-11.3-7.9-26.4-11.9-45.4-11.9
		c-2.7,0-5.1,0.1-7.3,0.2C1100.7,124.4,1099.3,125.9,1099.3,127.7z M1099.3,257.5v100.1c0,1.9,1.5,3.4,3.4,3.4h0
		c36.8,0,61.9-5.9,75.3-17.7c13.4-11.8,20.1-23.8,20.1-36.1c0-16.2-7.5-29.1-22.6-38.8c-15-9.6-35.6-14.5-61.8-14.5h-11
		C1100.8,254.1,1099.3,255.6,1099.3,257.5z"/>
	<path d="M1311.9,87.3L1311.9,87.3c11.8,0,21.3,9.6,21.3,21.3v170.7c0,28.4,6.8,50.4,20.5,66c13.7,15.5,33,23.3,58,23.3
		c24.9,0,44.2-7.2,58-21.5c13.8-14.3,20.7-34.5,20.7-60.5V108.6c0-11.8,9.6-21.3,21.3-21.3h0c11.8,0,21.3,9.6,21.3,21.3v175.1
		c0,38.3-10.9,68.8-32.7,91.7c-21.8,22.9-50.9,34.3-87.2,34.3c-37.1,0-66.8-11.6-89.2-34.8c-22.3-23.2-33.5-57.5-33.5-102.8V108.6
		C1290.6,96.9,1300.1,87.3,1311.9,87.3z"/>
	<path d="M1767,137.1l-0.2,0.1c-8.3,6.7-20.2,6.6-28.3-0.3c-4.1-3.5-8-6.4-11.7-8.7c-7.4-4.7-18.1-7-32.2-7
		c-15.3,0-27.8,3.5-37.3,10.4c-9.5,6.9-14.3,15.9-14.3,26.8c0,9.5,4.2,17.8,12.5,25.1c8.3,7.3,22.5,15.2,42.6,23.8
		c20.1,8.6,35.7,16.7,46.9,24.1c11.2,7.4,20.4,15.6,27.5,24.6c7.2,9,12.5,18.5,16,28.4c3.5,10,5.3,20.5,5.3,31.6
		c0,26-9.4,48.1-28.3,66.4c-18.9,18.3-41.7,27.4-68.5,27.4c-26.2,0-49.3-7.2-69.3-21.5c-13.6-9.7-25.1-22.8-34.4-39.1
		c-7.2-12.5-0.5-28.5,13.4-32.4l0,0c9.6-2.7,19.9,1.2,25,9.7c15.3,25.4,36.6,38.1,63.8,38.1c15.5,0,28.4-4.6,38.8-13.9
		c10.3-9.3,15.5-21,15.5-35.2c0-8.5-2.7-17-8.1-25.6c-5.4-8.6-12.1-15.6-20.1-21.1c-8-5.5-20.8-11.9-38.3-19.1
		c-17.5-7.2-31-13.7-40.4-19.7c-9.4-6-17.6-13.1-24.5-21.3c-6.9-8.3-11.9-16.5-15.1-24.6c-3.2-8.2-4.8-16.9-4.8-26.2
		c0-22.4,9-41.5,27-57.2c18-15.8,39.8-23.7,65.5-23.7c17,0,34.3,3.7,51.7,11c8.8,3.7,16.9,8.4,24.3,14.1
		C1778.2,110.9,1778.2,128.1,1767,137.1z"/>
</g>
<g>
	<path d="M800.4,116.6c32.4,0,62.9,12.6,85.8,35.5c22.9,22.9,35.5,53.4,35.5,85.8c0,32.4-12.6,62.9-35.5,85.8
		c-22.9,22.9-53.4,35.5-85.8,35.5s-62.9-12.6-85.8-35.5c-22.9-22.9-35.5-53.4-35.5-85.8c0-32.4,12.6-62.9,35.5-85.8
		C737.6,129.2,768,116.6,800.4,116.6 M800.4,76.6c-89.1,0-161.3,72.2-161.3,161.3s72.2,161.3,161.3,161.3
		c89.1,0,161.3-72.2,161.3-161.3S889.5,76.6,800.4,76.6L800.4,76.6z"/>
</g>
<path class="st0" d="M685.4,395.3c8,5.9,16.4,11.3,25.5,16.2c102.1,49.5,224.5,3.7,268.2-94.4c40.9-91.8,2.2-205-91.4-254.3
	c-11.3-5.5-22.8-9.8-34.4-13"/>
<path d="M804.5,515.2L804.5,515.2c-11.3,0-20.5-9.2-20.5-20.5V452c0-11.3,9.2-20.5,20.5-20.5l0,0c11.3,0,20.5,9.2,20.5,20.5v42.7
	C825,506,815.8,515.2,804.5,515.2z"/>
<path d="M736.2,496.5L736.2,496.5c0-11.3,9.2-20.5,20.5-20.5h92.8c11.3,0,20.5,9.2,20.5,20.5v0c0,11.3-9.2,20.5-20.5,20.5h-92.8
	C745.4,517.1,736.2,507.9,736.2,496.5z"/>
<g>
</g>
<g>
</g>
<g>
</g>
<g>
</g>
<g>
</g>
</svg>
